<?xml version="1.0" standalone="no"?>
<!DOCTYPE svg PUBLIC "-//W3C//DTD SVG 20010904//EN"
 "http://www.w3.org/TR/2001/REC-SVG-20010904/DTD/svg10.dtd">
<svg version="1.0" xmlns="http://www.w3.org/2000/svg"
 width="682.000000pt" height="682.000000pt" viewBox="0 0 682.000000 682.000000"
 preserveAspectRatio="xMidYMid meet">
<metadata>
Created by potrace 1.14, written by Peter Selinger 2001-2017
</metadata>
<g transform="translate(0.000000,682.000000) scale(0.100000,-0.100000)"
fill="#000000" stroke="none">
<path d="M3320 6430 c0 -5 -7 -10 -15 -10 -8 0 -15 -4 -15 -10 0 -5 -21 -10
-46 -10 -44 0 -74 -16 -74 -39 0 -6 -11 -13 -25 -17 -14 -3 -25 -10 -25 -15 0
-5 -9 -9 -20 -9 -11 0 -20 -4 -20 -9 0 -5 -16 -12 -35 -15 -19 -4 -35 -11 -35
-16 0 -6 -9 -10 -20 -10 -11 0 -20 -4 -20 -10 0 -5 -16 -12 -35 -16 -19 -3
-35 -10 -35 -15 0 -5 -9 -9 -20 -9 -11 0 -20 -4 -20 -10 0 -5 -20 -10 -45 -10
-25 0 -45 -4 -45 -10 0 -6 -28 -10 -65 -10 -37 0 -65 -4 -65 -10 0 -5 -7 -10
-15 -10 -8 0 -15 -7 -15 -15 0 -12 -16 -15 -86 -15 -56 0 -90 -4 -98 -13 -7
-7 -19 -36 -25 -65 -7 -28 -17 -52 -22 -52 -5 0 -9 -7 -9 -15 0 -8 -9 -15 -19
-15 -11 0 -21 -5 -23 -12 -2 -6 -37 -13 -86 -16 -61 -3 -82 -8 -82 -18 0 -8
-6 -14 -13 -14 -7 0 -19 -9 -27 -20 -8 -11 -20 -20 -27 -20 -7 0 -13 -7 -13
-15 0 -8 -7 -15 -15 -15 -8 0 -15 -7 -15 -15 0 -8 -9 -15 -20 -15 -11 0 -20 7
-20 15 0 8 -4 15 -10 15 -5 0 -12 16 -16 35 l-6 35 -90 0 c-92 0 -118 -10
-118 -44 0 -9 -7 -16 -15 -16 -8 0 -15 -7 -15 -15 0 -8 -4 -15 -10 -15 -5 0
-10 -7 -10 -15 0 -8 -4 -15 -10 -15 -5 0 -10 -9 -10 -20 0 -11 -4 -20 -9 -20
-5 0 -16 -6 -24 -14 -12 -13 -13 5 -9 130 l5 144 -96 0 -95 0 -7 -77 c-9 -114
-16 -153 -26 -153 -5 0 -9 -9 -9 -20 0 -11 -4 -20 -10 -20 -5 0 -12 -16 -16
-35 -3 -19 -10 -35 -15 -35 -5 0 -9 -7 -9 -15 0 -8 -4 -15 -10 -15 -5 0 -10
-7 -10 -15 0 -8 -4 -15 -10 -15 -5 0 -10 -7 -10 -15 0 -8 -7 -15 -15 -15 -8 0
-15 -7 -15 -15 0 -8 -4 -15 -10 -15 -5 0 -10 -7 -10 -15 0 -8 -7 -15 -15 -15
-8 0 -15 -6 -15 -12 0 -10 -26 -12 -104 -10 l-104 4 -7 -31 c-4 -17 -10 -31
-15 -31 -4 0 -11 -18 -15 -40 -4 -22 -11 -40 -16 -40 -5 0 -9 -7 -9 -15 0 -8
-4 -15 -10 -15 -5 0 -10 -7 -10 -15 0 -12 -14 -15 -65 -15 l-65 0 0 -104 0
-104 -117 -4 c-81 -2 -118 -7 -121 -16 -2 -6 -11 -12 -19 -12 -13 0 -15 -18
-12 -124 2 -68 8 -128 12 -132 4 -5 52 -10 107 -12 l98 -4 17 -67 c36 -145 34
-141 60 -141 16 0 25 -6 25 -15 0 -8 -4 -15 -10 -15 -5 0 -10 -7 -10 -15 0 -8
-4 -15 -10 -15 -5 0 -10 -7 -10 -15 0 -8 -4 -15 -9 -15 -5 0 -12 -16 -15 -35
-4 -19 -11 -35 -16 -35 -6 0 -10 -9 -10 -20 0 -11 -4 -20 -9 -20 -5 0 -12 -16
-15 -35 -4 -19 -11 -35 -15 -35 -5 0 -14 -22 -21 -50 -7 -27 -16 -50 -21 -50
-5 0 -9 -9 -9 -20 0 -11 -4 -20 -9 -20 -5 0 -15 -25 -22 -55 -7 -30 -16 -55
-20 -55 -5 0 -11 -16 -15 -35 -3 -19 -10 -35 -14 -35 -4 0 -13 -20 -19 -45
l-12 -46 -212 7 c-116 4 -251 4 -299 0 l-88 -8 0 -95 0 -95 138 2 c75 2 192 2
260 1 l122 -1 0 -25 c0 -14 -4 -25 -9 -25 -5 0 -17 -33 -26 -72 -10 -40 -22
-75 -26 -78 -5 -3 -13 -35 -18 -70 -6 -36 -15 -92 -20 -125 -35 -202 -53 -718
-31 -860 5 -33 14 -89 20 -125 6 -36 15 -101 20 -144 5 -44 13 -82 18 -85 5
-3 15 -30 22 -58 8 -29 17 -53 22 -53 4 0 8 -9 8 -20 0 -11 5 -20 10 -20 6 0
10 -7 10 -15 0 -8 4 -15 10 -15 5 0 12 -16 16 -35 3 -20 12 -35 20 -35 8 0 14
-7 14 -15 0 -8 4 -15 9 -15 5 0 12 -14 16 -30 4 -17 13 -30 21 -30 8 0 14 -7
14 -15 0 -8 5 -15 10 -15 6 0 10 -7 10 -15 0 -8 7 -15 15 -15 8 0 15 -7 15
-15 0 -8 5 -15 10 -15 6 0 10 -7 10 -15 0 -8 7 -15 15 -15 8 0 15 -7 15 -15 0
-8 5 -15 10 -15 6 0 10 -7 10 -15 0 -8 7 -15 15 -15 8 0 15 -7 15 -15 0 -8 5
-15 10 -15 6 0 10 -7 10 -15 0 -8 7 -15 15 -15 8 0 15 -7 15 -15 0 -8 7 -15
15 -15 8 0 15 -5 15 -11 0 -14 25 -39 39 -39 6 0 11 -9 11 -20 0 -11 5 -20 11
-20 14 0 39 -25 39 -39 0 -6 5 -11 11 -11 14 0 39 -25 39 -39 0 -6 9 -11 19
-11 12 0 21 -9 25 -25 4 -16 13 -25 26 -25 11 0 20 -5 20 -11 0 -14 25 -39 39
-39 6 0 11 -4 11 -10 0 -5 9 -10 20 -10 11 0 20 -7 20 -15 0 -8 7 -15 15 -15
8 0 15 -4 15 -10 0 -5 7 -10 15 -10 8 0 15 -4 15 -10 0 -5 7 -10 15 -10 8 0
15 -4 15 -10 0 -5 7 -10 15 -10 8 0 15 -7 15 -15 0 -8 9 -15 20 -15 11 0 20
-4 20 -10 0 -5 7 -10 15 -10 8 0 15 -4 15 -10 0 -5 7 -10 15 -10 8 0 15 -4 15
-10 0 -5 9 -10 20 -10 11 0 20 -4 20 -10 0 -5 7 -10 15 -10 8 0 15 -4 15 -10
0 -5 9 -10 20 -10 11 0 20 -7 20 -15 0 -8 14 -17 35 -21 19 -3 35 -10 35 -15
0 -5 7 -9 15 -9 8 0 15 -4 15 -9 0 -5 16 -12 35 -15 19 -4 35 -11 35 -16 0 -6
7 -10 15 -10 8 0 15 -4 15 -10 0 -5 9 -10 20 -10 11 0 20 -4 20 -8 0 -5 25
-15 55 -22 30 -7 55 -16 55 -20 0 -3 34 -14 75 -25 41 -10 75 -22 75 -26 0 -5
16 -11 35 -15 19 -3 35 -10 35 -15 0 -5 18 -9 39 -9 22 0 41 -4 43 -8 2 -5 68
-26 148 -47 80 -21 147 -42 150 -47 3 -4 39 -12 80 -18 41 -6 77 -15 78 -20 2
-6 19 -10 38 -10 19 0 34 -4 34 -9 0 -6 21 -12 48 -16 26 -3 92 -18 147 -32
55 -14 134 -29 175 -34 41 -4 118 -14 171 -23 53 -8 146 -17 208 -21 84 -6
111 -11 111 -21 0 -11 21 -14 95 -14 78 0 95 3 95 15 0 13 27 15 185 15 111 0
185 4 185 10 0 5 17 12 38 15 67 9 262 58 262 65 0 4 24 10 52 13 29 4 54 11
56 16 2 6 28 15 58 22 30 7 54 16 54 21 0 4 18 8 40 8 22 0 40 4 40 9 0 5 43
19 95 32 52 13 95 26 95 30 0 4 15 11 33 14 17 4 35 12 38 17 3 4 29 11 57 15
29 3 52 9 52 14 0 4 16 11 35 15 19 3 35 10 35 15 0 5 9 9 20 9 11 0 20 4 20
9 0 4 23 11 52 14 28 4 54 11 57 15 3 5 21 13 39 17 17 3 32 11 32 16 0 5 9 9
20 9 11 0 20 5 20 10 0 6 11 10 24 10 43 0 86 12 86 25 0 6 25 18 55 25 30 7
55 16 55 20 0 4 16 11 35 14 19 4 35 11 35 16 0 4 18 11 40 15 25 4 40 12 40
21 0 8 7 14 15 14 8 0 15 4 15 9 0 5 14 12 30 16 17 4 30 13 30 21 0 8 9 14
20 14 11 0 20 5 20 10 0 6 7 10 15 10 8 0 15 5 15 10 0 6 7 10 15 10 8 0 15 5
15 10 0 6 7 10 15 10 8 0 15 7 15 15 0 8 7 15 15 15 8 0 15 5 15 10 0 6 7 10
15 10 8 0 15 7 15 15 0 8 5 15 10 15 6 0 10 7 10 15 0 8 9 15 20 15 11 0 20 6
20 13 0 7 9 19 20 27 11 8 20 22 20 32 0 10 7 18 15 18 8 0 15 7 15 15 0 8 5
15 11 15 16 0 39 26 39 44 0 9 5 16 10 16 6 0 10 7 10 15 0 8 7 15 15 15 8 0
15 7 15 15 0 8 5 15 10 15 6 0 10 7 10 15 0 8 5 15 10 15 6 0 10 7 10 15 0 8
7 15 15 15 8 0 15 9 15 20 0 11 5 20 10 20 6 0 10 7 10 15 0 8 5 15 10 15 6 0
10 7 10 15 0 8 6 15 14 15 8 0 17 15 20 35 4 21 13 35 21 35 8 0 15 9 15 20 0
11 5 20 10 20 6 0 10 7 10 15 0 8 5 15 10 15 6 0 10 7 10 15 0 8 5 15 10 15 6
0 10 9 10 20 0 11 4 20 10 20 5 0 12 16 16 35 3 19 10 35 15 35 5 0 9 7 9 15
0 8 4 15 9 15 5 0 12 18 16 40 4 22 11 40 15 40 5 0 14 25 21 55 7 30 15 55
19 55 4 0 13 25 20 55 7 30 17 55 21 55 4 0 11 21 14 48 4 26 20 99 35 162 40
158 53 330 46 605 -5 241 -12 325 -27 325 -5 0 -9 14 -9 32 0 35 -29 150 -40
158 -4 3 -13 29 -20 58 -6 28 -16 52 -20 52 -5 0 -11 18 -15 40 -4 22 -11 40
-16 40 -5 0 -9 7 -9 15 0 8 -4 15 -9 15 -5 0 -12 18 -16 40 -4 22 -11 40 -15
40 -5 0 -12 16 -16 35 -3 19 -10 35 -15 35 -5 0 -9 7 -9 15 0 8 -7 15 -15 15
-8 0 -17 14 -21 35 -3 20 -12 35 -20 35 -8 0 -14 7 -14 15 0 8 -4 15 -10 15
-5 0 -10 7 -10 15 0 8 -4 15 -9 15 -5 0 -12 16 -15 35 -4 21 -13 35 -21 35 -8
0 -15 7 -15 15 0 8 -4 15 -10 15 -5 0 -10 9 -10 20 0 11 -4 20 -10 20 -5 0
-10 6 -10 13 0 7 -9 19 -20 27 -11 8 -20 22 -20 32 0 10 -4 18 -10 18 -5 0
-10 7 -10 15 0 8 -7 15 -15 15 -8 0 -15 9 -15 20 0 11 -4 20 -10 20 -5 0 -10
7 -10 15 0 8 -4 15 -10 15 -5 0 -10 7 -10 15 0 8 -4 15 -10 15 -5 0 -10 7 -10
15 0 8 -7 15 -15 15 -8 0 -15 7 -15 15 0 8 -7 15 -15 15 -8 0 -15 9 -15 20 0
11 -4 20 -10 20 -5 0 -10 7 -10 15 0 8 -5 15 -11 15 -14 0 -39 25 -39 39 0 6
-6 11 -14 11 -8 0 -17 14 -21 30 -4 17 -13 30 -21 30 -8 0 -14 5 -14 10 0 6
-9 10 -20 10 -11 0 -20 5 -20 11 0 16 -26 39 -44 39 -9 0 -16 5 -16 11 0 16
-26 39 -44 39 -9 0 -16 5 -16 10 0 6 -7 10 -15 10 -8 0 -15 5 -15 10 0 6 -7
10 -15 10 -8 0 -15 5 -15 10 0 6 -9 10 -20 10 -11 0 -20 7 -20 15 0 8 -7 15
-15 15 -8 0 -15 5 -15 10 0 6 -7 10 -15 10 -8 0 -15 7 -15 15 0 8 -6 15 -14
15 -18 0 -33 43 -17 48 6 2 11 10 11 18 0 8 5 14 10 14 6 0 10 38 10 95 l0 95
-95 0 c-78 0 -95 -3 -95 -15 0 -8 -4 -15 -10 -15 -5 0 -10 -5 -10 -11 0 -15
-26 -39 -43 -39 -9 0 -18 -6 -20 -12 -4 -10 -6 -10 -6 0 -1 6 -8 12 -16 12 -8
0 -15 7 -15 15 0 8 -7 15 -15 15 -8 0 -15 5 -15 10 0 6 -9 10 -20 10 -11 0
-20 5 -20 10 0 6 -9 10 -20 10 -11 0 -20 4 -20 10 0 5 -16 12 -35 16 -19 3
-35 10 -35 15 0 4 -16 11 -35 15 -19 3 -35 10 -35 15 0 5 -7 9 -15 9 -8 0 -15
5 -15 10 0 6 -9 10 -20 10 -11 0 -20 5 -20 10 0 6 -9 10 -19 10 -11 0 -26 7
-35 15 -8 8 -22 15 -30 15 -9 0 -16 4 -16 9 0 5 -16 12 -35 15 -20 4 -35 13
-35 21 0 7 -8 16 -17 18 -10 3 69 5 176 6 l194 1 -6 135 -6 135 114 0 115 0 0
93 0 94 -172 7 c-126 4 -192 12 -243 26 -38 11 -82 20 -97 20 -16 0 -28 5 -28
10 0 6 -18 10 -40 10 -22 0 -40 5 -40 10 0 6 -9 10 -20 10 -11 0 -20 4 -20 8
0 17 -147 42 -242 42 l-98 0 0 -96 0 -95 -37 3 -38 3 -3 68 -3 68 -156 -3
c-118 -2 -157 0 -161 10 -2 6 -10 12 -18 12 -8 0 -14 6 -14 13 0 7 -9 19 -20
27 -11 8 -20 20 -20 27 0 7 -4 13 -10 13 -5 0 -10 18 -10 40 l0 40 -100 0
c-82 0 -100 -3 -100 -15 0 -8 -7 -15 -16 -15 -18 0 -44 -23 -44 -39 0 -6 -7
-11 -15 -11 -8 0 -15 -7 -15 -15 0 -8 -4 -15 -10 -15 -5 0 -10 -9 -10 -20 0
-11 -7 -20 -15 -20 -8 0 -15 -7 -15 -15 0 -8 -5 -15 -11 -15 -14 0 -39 -25
-39 -39 0 -6 -7 -11 -15 -11 -8 0 -15 7 -15 15 0 8 5 15 10 15 6 0 10 9 10 20
0 11 5 20 10 20 6 0 10 7 10 15 0 8 6 15 14 15 8 0 17 14 21 30 4 17 11 30 16
30 5 0 9 9 9 20 0 11 5 20 11 20 14 0 39 25 39 39 0 6 7 11 15 11 12 0 15 17
15 96 l0 96 -107 -4 c-60 -3 -116 -8 -125 -12 -16 -7 -18 -2 -18 38 l0 46 -95
0 c-57 0 -95 -4 -95 -10z m90 -295 c0 -14 -4 -25 -8 -25 -10 0 -52 -146 -52
-179 0 -19 -5 -21 -62 -20 -35 1 -53 4 -40 6 12 2 22 11 22 19 0 8 5 14 10 14
6 0 10 9 10 20 0 11 5 20 10 20 6 0 10 20 10 45 0 25 4 45 9 45 5 0 13 15 16
33 10 45 12 47 46 47 24 0 29 -4 29 -25z m460 -285 c0 -5 7 -10 15 -10 8 0 15
-7 15 -15 0 -9 10 -15 23 -16 12 0 16 -3 10 -6 -24 -9 -83 17 -83 38 0 10 5
19 10 19 6 0 10 -4 10 -10z m300 -104 c0 -19 6 -37 13 -40 6 -3 -4 -3 -23 0
-19 4 -37 10 -40 15 -3 4 -27 13 -53 19 -26 7 -47 16 -47 20 0 5 -10 11 -22
13 -13 2 21 5 75 6 l97 1 0 -34z m-810 -46 c8 -11 20 -20 27 -20 7 0 13 -7 13
-15 0 -8 9 -15 20 -15 11 0 20 -4 20 -10 0 -6 38 -10 95 -10 95 0 125 -12 60
-24 -21 -4 -35 -13 -35 -21 0 -11 -12 -15 -45 -15 -41 0 -45 2 -45 25 0 25 0
25 -95 25 -78 0 -95 -3 -95 -15 0 -8 -7 -15 -15 -15 -8 0 -15 -4 -15 -10 0 -5
-9 -10 -20 -10 -11 0 -20 -4 -20 -9 0 -21 -101 -30 -108 -10 -4 10 -164 12
-199 3 -13 -4 -23 -13 -23 -20 0 -10 -15 -14 -55 -14 -30 0 -55 5 -55 10 0 6
9 10 20 10 17 0 20 7 20 51 l0 51 185 -7 185 -7 0 35 c0 32 3 36 38 45 66 18
126 14 142 -8z m1630 10 c12 -8 11 -10 -7 -10 -13 0 -23 5 -23 10 0 13 11 13
30 0z m-570 -75 c0 -17 -4 -18 -49 -9 -44 9 -39 24 9 24 29 0 40 -4 40 -15z
m-450 -104 c0 -5 16 -12 35 -15 19 -4 35 -10 35 -15 0 -4 34 -16 75 -26 41
-11 75 -22 75 -25 0 -4 25 -13 55 -20 30 -7 55 -17 55 -21 0 -5 16 -11 35 -15
19 -3 35 -10 35 -14 0 -4 25 -13 55 -20 30 -7 55 -17 55 -21 0 -4 25 -13 55
-20 30 -7 55 -15 55 -19 0 -4 16 -11 35 -14 19 -4 35 -11 35 -16 0 -6 9 -10
20 -10 11 0 20 -4 20 -9 0 -5 14 -12 30 -16 17 -4 30 -12 30 -20 0 -7 17 -16
37 -20 20 -4 44 -15 53 -25 9 -10 33 -21 53 -25 20 -4 37 -11 37 -16 0 -5 7
-9 15 -9 8 0 15 -4 15 -10 0 -5 9 -10 20 -10 11 0 20 -4 20 -10 0 -5 16 -12
35 -16 19 -3 35 -10 35 -15 0 -4 16 -11 35 -15 19 -3 35 -10 35 -15 0 -5 9 -9
20 -9 11 0 20 -4 20 -10 0 -5 7 -10 15 -10 8 0 15 -4 15 -10 0 -5 7 -10 15
-10 8 0 15 -4 15 -10 0 -5 -7 -10 -15 -10 -8 0 -15 -7 -15 -15 0 -8 -4 -15
-10 -15 -5 0 -10 -7 -10 -15 0 -8 -5 -15 -11 -15 -14 0 -39 -25 -39 -39 0 -6
-7 -11 -15 -11 -8 0 -15 -4 -15 -10 0 -5 -7 -10 -15 -10 -8 0 -15 -9 -15 -20
0 -11 -7 -20 -15 -20 -8 0 -15 -7 -15 -15 0 -8 -4 -15 -10 -15 -5 0 -10 -7
-10 -15 0 -8 -4 -15 -10 -15 -5 0 -10 -7 -10 -15 0 -8 -4 -15 -10 -15 -5 0
-10 -9 -10 -20 0 -11 -4 -20 -10 -20 -5 0 -10 -7 -10 -15 0 -8 -5 -15 -11 -15
-16 0 -39 -26 -39 -44 0 -9 -4 -16 -10 -16 -5 0 -10 -7 -10 -15 0 -8 -4 -15
-10 -15 -5 0 -10 -7 -10 -15 0 -8 -4 -15 -10 -15 -5 0 -10 -9 -10 -20 0 -11
-4 -20 -10 -20 -5 0 -10 -7 -10 -15 0 -8 -7 -15 -15 -15 -8 0 -15 -7 -15 -15
0 -8 -4 -15 -10 -15 -5 0 -10 -7 -10 -15 0 -8 -4 -15 -10 -15 -5 0 -10 -7 -10
-15 0 -8 -7 -15 -15 -15 -8 0 -15 -6 -15 -12 0 -10 -61 -12 -282 -10 -276 4
-388 -5 -388 -29 0 -5 -7 -9 -15 -9 -8 0 -15 -4 -15 -10 0 -5 -8 -10 -18 -10
-10 0 -24 -9 -32 -20 -11 -15 -26 -20 -62 -20 -26 0 -48 -4 -48 -10 0 -5 -7
-10 -15 -10 -8 0 -15 -7 -15 -15 0 -8 -7 -15 -15 -15 -8 0 -15 -9 -15 -20 0
-11 -4 -20 -10 -20 -5 0 -10 -7 -10 -15 0 -8 -4 -15 -10 -15 -5 0 -10 -6 -10
-14 0 -23 -24 -26 -206 -26 -160 0 -264 -12 -264 -31 0 -3 -14 -9 -31 -13 -32
-6 -59 -27 -59 -45 0 -6 -7 -11 -15 -11 -8 0 -15 -9 -15 -20 0 -11 -4 -20 -9
-20 -5 0 -12 -13 -16 -30 -6 -27 -35 -44 -35 -20 0 6 -7 10 -15 10 -8 0 -15 4
-15 8 0 5 -24 14 -52 22 -29 7 -55 17 -58 21 -14 21 -296 39 -357 23 -20 -6
-23 -13 -23 -55 l0 -49 -181 0 c-156 0 -193 -3 -263 -22 -44 -12 -82 -26 -84
-30 -2 -4 -10 -8 -18 -8 -8 0 -14 -4 -14 -10 0 -5 -7 -10 -15 -10 -8 0 -15 -4
-15 -10 0 -5 -7 -10 -15 -10 -8 0 -15 -7 -15 -15 0 -8 -9 -15 -20 -15 -13 0
-22 -9 -26 -25 -3 -14 -12 -25 -20 -25 -8 0 -14 -7 -14 -15 0 -8 -4 -15 -10
-15 -5 0 -10 -7 -10 -16 0 -12 -6 -15 -26 -10 -15 4 -39 10 -55 13 -16 3 -29
9 -29 13 0 3 -34 15 -75 25 -41 11 -75 23 -75 27 0 4 -9 8 -20 8 -11 0 -20 3
-20 8 0 9 -153 48 -222 57 -27 3 -48 10 -48 16 0 5 -12 9 -26 9 -14 0 -80 14
-147 31 -67 17 -164 37 -215 44 -95 13 -115 20 -96 33 6 4 17 31 24 60 8 28
17 52 22 52 4 0 8 7 8 15 0 8 4 15 8 15 5 0 14 23 21 50 7 28 17 50 21 50 5 0
11 18 15 40 4 22 11 40 16 40 5 0 9 7 9 15 0 8 4 15 9 15 5 0 12 16 15 35 4
19 11 35 16 35 6 0 10 7 10 15 0 8 5 15 10 15 6 0 10 7 10 15 0 8 5 15 10 15
6 0 10 9 10 20 0 11 5 20 10 20 6 0 10 7 10 15 0 8 5 15 10 15 6 0 10 6 10 14
0 21 23 26 121 26 55 0 89 4 89 10 0 6 11 22 25 36 25 25 29 26 160 25 87 -1
135 2 135 9 0 5 9 10 20 10 11 0 20 5 20 10 0 6 7 10 15 10 8 0 15 5 15 10 0
6 7 10 15 10 8 0 15 7 15 15 0 8 7 15 15 15 8 0 15 7 15 15 0 8 9 15 20 15 11
0 20 6 20 14 0 8 9 18 20 21 11 4 20 15 20 26 0 18 2 19 15 5 8 -8 15 -19 15
-25 0 -15 237 -14 296 0 24 6 44 17 44 24 0 7 16 16 35 19 26 5 35 12 35 26 0
11 5 20 10 20 12 0 13 125 3 313 l-6 127 -126 1 c-69 1 -118 3 -108 6 9 2 17
11 17 19 0 8 7 14 15 14 8 0 15 7 15 15 0 8 6 15 14 15 8 0 16 5 18 12 2 6 43
14 99 19 51 5 106 11 122 15 23 5 27 3 27 -15 0 -11 5 -21 10 -21 6 0 10 -8
10 -19 0 -27 34 -31 282 -31 213 0 304 10 320 34 4 7 67 14 155 17 147 7 193
14 193 30 0 4 60 5 133 2 144 -6 207 0 207 21 0 8 16 17 35 20 19 4 35 11 35
16 0 6 9 10 20 10 11 0 20 5 20 10 0 6 8 10 18 10 10 0 24 9 32 20 8 11 22 20
32 20 10 0 18 6 18 14 0 14 14 24 38 25 6 1 12 -3 12 -8z m-2660 -406 c0 -16
-6 -25 -15 -25 -8 0 -15 -4 -15 -10 0 -5 -6 -10 -14 -10 -8 0 -17 -6 -19 -12
-3 -8 -6 -6 -6 5 -1 9 5 17 13 17 8 0 17 14 21 30 8 37 35 40 35 5z m-83 -87
c-3 -8 -6 -5 -6 6 -1 11 2 17 5 13 3 -3 4 -12 1 -19z m393 -42 c0 -44 3 -55
18 -58 9 -2 -27 -15 -80 -28 -54 -13 -98 -28 -98 -32 0 -4 -7 -8 -15 -8 -8 0
-15 -4 -15 -10 0 -5 -9 -10 -20 -10 -11 0 -20 5 -20 10 0 6 6 10 13 10 7 0 19
9 27 20 8 11 20 20 27 20 7 0 13 9 13 19 0 13 9 21 30 26 17 4 30 13 30 21 0
8 7 14 15 14 8 0 15 7 15 15 0 8 7 15 15 15 8 0 15 7 15 15 0 8 7 15 15 15 11
0 15 -13 15 -54z m-440 -11 c0 -8 -7 -15 -15 -15 -13 0 -14 3 -3 15 16 18 18
18 18 0z m-53 -71 c-3 -3 -12 -4 -19 -1 -8 3 -5 6 6 6 11 1 17 -2 13 -5z m-34
-31 c-7 -2 -13 -13 -13 -23 0 -17 -46 -38 -58 -25 -3 3 0 5 6 5 7 0 12 7 12
15 0 8 7 15 15 15 8 0 15 5 15 10 0 6 8 10 18 9 10 0 12 -3 5 -6z m4377 -77
c0 -8 14 -17 30 -21 17 -4 30 -11 30 -16 0 -5 7 -9 15 -9 8 0 15 -7 15 -15 0
-8 7 -15 15 -15 8 0 15 -4 15 -10 0 -5 9 -10 20 -10 11 0 20 -7 20 -15 0 -8 7
-15 15 -15 8 0 15 -4 15 -10 0 -5 7 -10 15 -10 8 0 15 -4 15 -10 0 -5 8 -10
18 -10 10 0 24 -9 32 -20 8 -11 22 -20 32 -20 10 0 18 -5 18 -11 0 -16 26 -39
44 -39 9 0 16 -7 16 -15 0 -8 7 -15 15 -15 8 0 17 -11 21 -25 3 -14 12 -25 20
-25 8 0 14 -7 14 -15 0 -8 5 -15 10 -15 6 0 10 -7 10 -15 0 -8 5 -15 11 -15 6
0 17 -6 25 -14 8 -8 14 -19 14 -25 0 -6 7 -11 15 -11 8 0 15 -9 15 -20 0 -11
7 -20 15 -20 8 0 15 -7 15 -15 0 -8 5 -15 10 -15 6 0 10 -7 10 -15 0 -8 5 -15
10 -15 6 0 10 -7 10 -15 0 -8 5 -15 10 -15 6 0 10 -7 10 -15 0 -8 7 -15 15
-15 8 0 15 -9 15 -20 0 -11 5 -20 10 -20 6 0 10 -7 10 -15 0 -8 5 -15 10 -15
6 0 10 -8 10 -18 0 -10 9 -24 20 -32 11 -8 20 -20 20 -27 0 -7 5 -13 10 -13 6
0 10 -9 10 -20 0 -11 6 -20 14 -20 8 0 17 -13 21 -30 4 -16 11 -30 16 -30 5 0
9 -9 9 -20 0 -11 5 -20 10 -20 6 0 10 -7 10 -15 0 -8 7 -15 15 -15 8 0 17 -14
21 -35 3 -20 12 -35 20 -35 8 0 14 -7 14 -15 0 -8 4 -15 10 -15 5 0 12 -16 16
-35 3 -19 10 -35 15 -35 4 0 11 -16 15 -35 3 -19 10 -35 15 -35 5 0 9 -9 9
-20 0 -11 4 -20 10 -20 5 0 12 -16 16 -35 3 -19 9 -35 13 -35 4 0 13 -24 21
-52 7 -29 16 -55 19 -58 11 -8 41 -127 41 -160 0 -16 4 -30 9 -30 9 0 16 -43
27 -171 9 -111 -12 -325 -46 -459 -16 -63 -31 -136 -35 -162 -3 -27 -10 -48
-15 -48 -5 0 -14 -25 -21 -55 -7 -30 -15 -55 -19 -55 -4 0 -13 -25 -20 -55 -7
-30 -16 -55 -20 -55 -4 0 -11 -16 -14 -35 -4 -19 -11 -35 -16 -35 -6 0 -10 -9
-10 -20 0 -11 -4 -20 -10 -20 -5 0 -12 -16 -16 -35 -3 -19 -10 -35 -15 -35 -5
0 -9 -7 -9 -15 0 -8 -4 -15 -10 -15 -5 0 -10 -7 -10 -15 0 -8 -4 -15 -10 -15
-5 0 -10 -9 -10 -20 0 -11 -4 -20 -10 -20 -5 0 -10 -7 -10 -15 0 -8 -6 -15
-14 -15 -8 0 -17 -15 -20 -35 -4 -21 -13 -35 -21 -35 -8 0 -15 -7 -15 -15 0
-8 -4 -15 -10 -15 -5 0 -10 -9 -10 -20 0 -11 -4 -20 -10 -20 -5 0 -10 -7 -10
-15 0 -8 -7 -15 -15 -15 -8 0 -15 -7 -15 -15 0 -8 -4 -15 -10 -15 -5 0 -10 -7
-10 -15 0 -8 -4 -15 -10 -15 -5 0 -10 -7 -10 -15 0 -8 -7 -15 -15 -15 -8 0
-15 -8 -15 -18 0 -10 -9 -24 -20 -32 -11 -8 -20 -20 -20 -27 0 -7 -7 -13 -15
-13 -8 0 -15 -9 -15 -20 0 -11 -5 -20 -11 -20 -14 0 -39 -25 -39 -39 0 -6 -4
-11 -10 -11 -5 0 -10 -7 -10 -15 0 -8 -9 -15 -20 -15 -11 0 -20 -5 -20 -11 0
-14 -25 -39 -39 -39 -6 0 -11 -7 -11 -15 0 -8 -7 -15 -15 -15 -8 0 -15 -4 -15
-10 0 -5 -7 -10 -15 -10 -8 0 -15 -4 -15 -10 0 -5 -7 -10 -15 -10 -8 0 -15 -4
-15 -10 0 -5 -7 -10 -15 -10 -8 0 -15 -6 -15 -14 0 -8 -15 -17 -35 -20 -19 -4
-35 -11 -35 -16 0 -6 -7 -10 -15 -10 -8 0 -15 -7 -15 -15 0 -8 -14 -17 -35
-21 -19 -3 -35 -10 -35 -14 0 -4 -16 -11 -35 -14 -19 -4 -35 -10 -35 -15 0 -4
-25 -13 -55 -20 -32 -7 -55 -18 -55 -25 0 -14 -42 -26 -86 -26 -13 0 -24 -4
-24 -10 0 -5 -9 -10 -20 -10 -11 0 -20 -4 -20 -9 0 -5 -15 -12 -34 -15 -19 -4
-36 -11 -38 -17 -2 -5 -29 -13 -61 -16 -31 -3 -57 -10 -57 -14 0 -5 -7 -9 -15
-9 -8 0 -15 -4 -15 -9 0 -5 -18 -12 -40 -16 -22 -4 -40 -10 -40 -15 0 -4 -22
-10 -50 -14 -27 -4 -50 -11 -50 -15 0 -5 -18 -12 -40 -16 -22 -4 -40 -10 -40
-15 0 -4 -43 -18 -95 -31 -52 -13 -95 -27 -95 -31 0 -4 -16 -8 -35 -8 -19 0
-35 -4 -35 -8 0 -5 -26 -15 -57 -22 -32 -7 -61 -17 -64 -23 -4 -5 -30 -12 -58
-15 -28 -2 -51 -8 -51 -12 0 -9 -185 -57 -252 -65 -27 -4 -48 -11 -48 -17 0
-16 -441 -3 -565 17 -55 9 -136 20 -180 25 -44 5 -111 18 -150 30 -38 11 -101
25 -140 30 -38 6 -72 15 -73 20 -2 6 -19 10 -37 10 -18 0 -35 4 -37 10 -1 5
-37 14 -78 20 -41 6 -77 14 -80 19 -3 4 -70 25 -150 46 -80 21 -146 42 -148
47 -2 4 -21 8 -43 8 -21 0 -39 4 -39 10 0 5 -16 12 -35 16 -19 3 -35 10 -35
14 0 5 -34 16 -75 26 -41 10 -75 21 -75 25 0 4 -25 13 -55 20 -30 7 -55 16
-55 21 0 4 -7 8 -15 8 -8 0 -15 5 -15 10 0 6 -7 10 -15 10 -8 0 -15 4 -15 9 0
5 -16 12 -35 15 -19 4 -35 11 -35 16 0 6 -9 10 -20 10 -11 0 -20 4 -20 10 0 5
-16 12 -35 16 -20 3 -35 12 -35 20 0 8 -7 14 -15 14 -8 0 -15 5 -15 10 0 6 -9
10 -20 10 -11 0 -20 5 -20 10 0 6 -7 10 -15 10 -8 0 -15 5 -15 10 0 6 -7 10
-15 10 -8 0 -15 5 -15 10 0 6 -9 10 -20 10 -11 0 -20 5 -20 10 0 6 -7 10 -15
10 -8 0 -15 7 -15 15 0 8 -7 15 -15 15 -8 0 -15 5 -15 10 0 6 -7 10 -15 10 -8
0 -15 5 -15 10 0 6 -7 10 -15 10 -8 0 -15 5 -15 10 0 6 -9 10 -20 10 -11 0
-20 7 -20 15 0 8 -6 15 -13 15 -7 0 -19 9 -27 20 -8 11 -22 20 -31 20 -10 0
-20 11 -23 25 -4 16 -13 25 -26 25 -11 0 -20 7 -20 15 0 8 -4 15 -10 15 -5 0
-10 7 -10 15 0 8 -5 15 -11 15 -14 0 -39 25 -39 39 0 6 -7 11 -15 11 -8 0 -15
5 -15 10 0 6 -7 10 -15 10 -8 0 -15 7 -15 16 0 18 -23 44 -39 44 -6 0 -11 7
-11 15 0 8 -7 15 -15 15 -8 0 -15 7 -15 15 0 8 -4 15 -10 15 -5 0 -10 7 -10
15 0 8 -7 15 -15 15 -8 0 -15 7 -15 15 0 8 -4 15 -10 15 -5 0 -10 7 -10 15 0
8 -7 15 -15 15 -8 0 -15 7 -15 15 0 8 -4 15 -10 15 -5 0 -10 7 -10 15 0 8 -7
15 -15 15 -8 0 -15 7 -15 15 0 8 -4 15 -10 15 -5 0 -10 7 -10 15 0 8 -6 15
-14 15 -8 0 -17 13 -21 30 -4 16 -11 30 -16 30 -5 0 -9 7 -9 15 0 8 -7 15 -15
15 -8 0 -17 14 -21 35 -3 19 -10 35 -15 35 -5 0 -9 7 -9 15 0 8 -4 15 -10 15
-5 0 -10 7 -10 15 0 8 -4 15 -8 15 -5 0 -14 24 -21 54 -7 30 -17 56 -22 58 -6
2 -14 42 -20 88 -5 47 -13 108 -18 135 -32 178 -34 219 -22 385 16 209 55 490
70 500 4 3 16 38 26 78 10 39 22 72 26 72 4 0 10 16 13 35 4 19 10 35 15 35 4
0 13 25 20 55 l12 54 47 -5 c26 -3 107 -21 181 -40 74 -19 147 -34 163 -34 15
0 28 -4 28 -9 0 -6 21 -13 47 -16 68 -9 217 -47 221 -57 2 -4 12 -8 23 -8 10
0 19 -4 19 -8 0 -5 34 -17 75 -27 41 -11 75 -22 75 -26 0 -4 16 -10 35 -13 19
-4 35 -11 35 -16 0 -6 7 -10 15 -10 8 0 15 -4 15 -10 0 -5 9 -10 20 -10 11 0
20 -4 20 -10 0 -5 6 -10 14 -10 12 0 15 -32 18 -180 2 -123 7 -183 15 -188 6
-4 14 -24 18 -45 4 -20 11 -37 16 -37 5 0 9 -7 9 -15 0 -8 5 -15 10 -15 6 0
10 -7 10 -15 0 -8 5 -15 10 -15 6 0 10 -7 10 -15 0 -8 5 -15 10 -15 6 0 10 -7
10 -15 0 -8 7 -15 15 -15 8 0 15 -7 15 -16 0 -18 23 -44 39 -44 6 0 11 -7 11
-15 0 -8 7 -15 15 -15 8 0 15 -7 15 -15 0 -8 7 -15 15 -15 8 0 15 -4 15 -10 0
-5 7 -10 15 -10 8 0 15 -7 15 -15 0 -8 7 -15 15 -15 8 0 15 -4 15 -10 0 -5 7
-10 15 -10 8 0 15 -7 15 -15 0 -8 9 -15 19 -15 11 0 21 -4 23 -9 5 -15 228
-69 338 -81 137 -15 492 -10 498 8 2 6 12 12 23 12 10 0 19 5 19 10 0 6 7 10
15 10 8 0 15 5 15 10 0 6 7 10 15 10 8 0 15 7 15 15 0 8 7 15 15 15 8 0 15 7
15 15 0 8 7 15 15 15 8 0 15 7 15 15 0 8 7 15 15 15 8 0 15 7 15 15 0 8 5 15
10 15 6 0 10 7 10 15 0 8 5 15 10 15 6 0 10 7 10 15 0 8 5 15 10 15 6 0 10 7
10 15 0 8 5 15 10 15 6 0 10 7 10 15 0 8 5 15 10 15 6 0 10 6 10 14 0 8 3 16
8 18 10 4 53 169 64 247 14 98 6 523 -9 529 -7 2 -13 10 -13 18 0 8 -4 14 -10
14 -5 0 -10 9 -10 20 0 11 -4 20 -10 20 -5 0 -10 7 -10 15 0 8 4 15 10 15 5 0
12 16 16 35 3 19 10 35 15 35 5 0 9 7 9 15 0 8 7 15 15 15 8 0 15 4 15 10 0 5
11 12 25 16 14 3 25 9 25 13 0 14 103 31 189 31 l88 0 5 -166 c3 -98 9 -168
15 -172 5 -4 16 -31 23 -59 6 -29 16 -53 20 -53 4 0 11 -16 14 -35 4 -19 11
-35 16 -35 6 0 10 -7 10 -15 0 -8 5 -15 10 -15 6 0 10 -9 10 -20 0 -11 7 -20
15 -20 8 0 15 -5 15 -11 0 -6 6 -17 14 -25 8 -8 19 -14 25 -14 6 0 11 -7 11
-16 0 -18 23 -44 39 -44 6 0 11 -7 11 -15 0 -8 7 -15 15 -15 8 0 15 -7 15 -15
0 -8 7 -15 15 -15 8 0 15 -4 15 -10 0 -5 7 -10 15 -10 8 0 15 -7 15 -15 0 -8
7 -15 15 -15 8 0 15 -7 15 -15 0 -8 14 -17 35 -21 20 -3 35 -12 35 -20 0 -8 7
-14 15 -14 8 0 15 -4 15 -9 0 -5 16 -12 35 -15 19 -4 35 -11 35 -16 0 -5 16
-12 35 -16 19 -3 35 -10 35 -14 0 -14 88 -21 305 -27 179 -4 221 -2 283 13 39
10 72 22 72 26 0 4 7 8 15 8 8 0 15 5 15 10 0 6 9 10 20 10 11 0 20 5 20 10 0
6 7 10 15 10 8 0 15 5 15 10 0 6 7 10 15 10 8 0 15 7 15 15 0 8 7 15 15 15 8
0 15 7 15 15 0 8 7 15 15 15 8 0 15 7 15 15 0 8 5 15 10 15 6 0 10 9 10 20 0
11 4 20 10 20 5 0 12 16 16 35 3 19 10 35 14 35 5 0 11 14 15 30 4 17 11 30
16 30 5 0 9 9 9 20 0 11 4 20 8 20 5 0 19 42 33 93 22 85 24 110 24 326 0 175
-3 235 -12 238 -7 3 -15 20 -19 39 -3 19 -10 34 -15 34 -5 0 -9 7 -9 15 0 8
-5 15 -11 15 -16 0 -39 26 -39 44 0 9 -7 16 -15 16 -8 0 -15 5 -15 10 0 6 -7
10 -15 10 -8 0 -15 5 -15 10 0 6 -7 10 -15 10 -8 0 -15 6 -15 14 0 7 -13 16
-30 20 -18 3 -30 12 -30 21 0 8 -7 15 -15 15 -8 0 -15 4 -15 9 0 5 -17 12 -37
16 -21 4 -32 10 -25 12 6 3 12 13 12 24 0 10 5 19 10 19 6 0 10 7 10 15 0 8 5
15 10 15 6 0 10 7 10 15 0 8 5 15 10 15 6 0 10 8 10 18 0 10 9 24 20 32 11 8
20 20 20 27 0 7 7 13 15 13 8 0 15 9 15 20 0 11 5 20 10 20 6 0 10 7 10 15 0
8 5 15 10 15 6 0 10 7 10 15 0 8 5 15 10 15 6 0 10 7 10 15 0 8 5 15 10 15 6
0 10 9 10 20 0 11 7 20 15 20 8 0 15 5 15 10 0 6 7 10 15 10 8 0 15 7 15 15 0
8 5 15 11 15 14 0 39 25 39 39 0 6 7 11 15 11 8 0 15 5 15 11 0 14 25 39 39
39 6 0 11 7 11 15 0 8 7 15 15 15 8 0 15 -6 15 -14z m-770 -685 c3 -5 38 -10
78 -13 40 -2 76 -8 80 -14 4 -6 20 -14 36 -18 30 -7 56 -28 56 -44 0 -5 16
-13 35 -16 21 -4 35 -13 35 -21 0 -8 7 -15 15 -15 8 0 15 -4 15 -10 0 -5 5
-10 11 -10 16 0 39 -26 39 -44 0 -9 5 -16 11 -16 17 0 37 -25 45 -56 4 -16 11
-32 17 -35 19 -13 12 -161 -13 -257 -14 -50 -28 -92 -32 -92 -5 0 -8 -7 -8
-15 0 -8 -4 -15 -10 -15 -5 0 -12 -16 -16 -35 -3 -19 -10 -35 -15 -35 -4 0
-11 -16 -15 -35 -3 -19 -10 -35 -15 -35 -5 0 -9 -7 -9 -15 0 -8 -4 -15 -10
-15 -5 0 -10 -7 -10 -15 0 -8 -7 -15 -15 -15 -8 0 -15 -7 -15 -15 0 -8 -7 -15
-15 -15 -8 0 -15 -4 -15 -10 0 -5 -7 -10 -15 -10 -8 0 -15 -4 -15 -10 0 -5 -7
-10 -15 -10 -8 0 -15 -4 -15 -10 0 -5 -9 -10 -20 -10 -11 0 -20 -4 -20 -9 0
-17 -138 -44 -193 -38 -126 15 -157 20 -157 27 0 5 -13 11 -30 15 -16 4 -30
10 -30 15 0 4 -16 11 -35 14 -19 4 -35 11 -35 16 0 6 -9 10 -20 10 -11 0 -20
6 -20 14 0 8 -13 17 -30 21 -16 4 -30 13 -30 21 0 8 -7 14 -15 14 -8 0 -15 7
-15 15 0 8 -7 15 -15 15 -8 0 -15 5 -15 10 0 6 -7 10 -15 10 -8 0 -15 7 -15
15 0 8 -7 15 -15 15 -8 0 -15 5 -15 11 0 14 -25 39 -39 39 -6 0 -11 7 -11 16
0 18 -23 44 -39 44 -6 0 -11 7 -11 15 0 8 -4 15 -10 15 -5 0 -10 9 -10 20 0
11 -4 20 -9 20 -5 0 -12 14 -16 30 -4 17 -10 30 -14 30 -4 0 -13 24 -21 53 -7
28 -16 54 -21 57 -20 13 -8 230 12 230 5 0 9 7 9 15 0 8 5 15 10 15 6 0 10 9
10 20 0 11 5 20 10 20 6 0 10 7 10 15 0 8 7 15 15 15 8 0 15 5 15 10 0 6 7 10
15 10 8 0 15 5 15 10 0 6 22 10 48 10 36 0 51 5 62 20 8 11 22 20 32 20 10 0
18 4 18 9 0 4 15 13 33 19 37 13 418 7 427 -7z m-1850 -372 c3 -4 27 -13 53
-19 26 -7 47 -16 47 -21 0 -5 7 -9 15 -9 8 0 15 -4 15 -10 0 -5 9 -10 20 -10
11 0 20 -4 20 -10 0 -5 7 -10 15 -10 8 0 15 -7 15 -15 0 -8 7 -15 15 -15 8 0
15 -4 15 -10 0 -5 7 -10 15 -10 8 0 15 -7 15 -15 0 -8 5 -15 10 -15 6 0 10 -7
10 -15 0 -8 5 -15 10 -15 6 0 10 -7 10 -15 0 -8 5 -15 10 -15 6 0 10 -7 10
-15 0 -8 5 -15 10 -15 6 0 10 -9 10 -19 0 -11 6 -21 13 -24 9 -3 12 -35 12
-118 0 -92 -6 -135 -29 -226 -16 -62 -33 -113 -38 -113 -4 0 -8 -7 -8 -15 0
-8 -4 -15 -10 -15 -5 0 -10 -7 -10 -15 0 -8 -4 -15 -10 -15 -5 0 -10 -7 -10
-15 0 -8 -4 -15 -10 -15 -5 0 -10 -7 -10 -15 0 -8 -4 -15 -10 -15 -5 0 -10 -7
-10 -15 0 -8 -4 -15 -10 -15 -5 0 -10 -7 -10 -15 0 -8 -7 -15 -15 -15 -8 0
-15 -7 -15 -15 0 -8 -7 -15 -15 -15 -8 0 -15 -7 -15 -15 0 -8 -7 -15 -15 -15
-8 0 -15 -4 -15 -10 0 -5 -7 -10 -15 -10 -8 0 -15 -4 -15 -10 0 -5 -7 -10 -15
-10 -8 0 -15 -4 -15 -9 0 -18 -93 -24 -194 -12 -106 12 -339 68 -344 83 -2 4
-10 8 -18 8 -8 0 -14 7 -14 15 0 8 -7 15 -15 15 -8 0 -15 5 -15 10 0 6 -7 10
-15 10 -8 0 -15 7 -15 15 0 8 -7 15 -15 15 -8 0 -15 5 -15 10 0 6 -7 10 -15
10 -8 0 -15 7 -15 15 0 8 -7 15 -15 15 -8 0 -15 5 -15 11 0 14 -25 39 -39 39
-6 0 -11 9 -11 20 0 11 -4 20 -10 20 -5 0 -10 7 -10 15 0 8 -4 15 -10 15 -5 0
-10 7 -10 15 0 8 -4 15 -10 15 -5 0 -10 7 -10 15 0 8 -4 15 -10 15 -5 0 -12
16 -16 35 -3 19 -10 35 -15 35 -4 0 -11 20 -15 45 -5 33 0 70 17 135 12 50 26
90 31 90 4 0 8 7 8 15 0 8 7 15 15 15 8 0 15 7 15 15 0 8 5 15 10 15 6 0 10 7
10 15 0 8 7 15 15 15 8 0 17 11 21 25 4 16 13 25 25 25 10 0 19 5 19 10 0 6 7
10 15 10 8 0 15 5 15 10 0 6 7 10 15 10 8 0 15 4 15 8 0 5 38 19 85 32 71 18
100 21 168 16 45 -4 128 -9 185 -12 l102 -6 0 61 0 61 28 -6 c15 -4 29 -11 32
-15z"/>
<path d="M5470 2770 c0 -11 -4 -20 -10 -20 -5 0 -10 -7 -10 -15 0 -8 -4 -15
-10 -15 -5 0 -10 -7 -10 -15 0 -8 -4 -15 -10 -15 -5 0 -10 -9 -10 -20 0 -11
-4 -20 -9 -20 -5 0 -12 -13 -16 -30 -4 -16 -13 -30 -20 -30 -7 0 -16 -13 -20
-30 -4 -20 -13 -30 -25 -30 -12 0 -21 -10 -25 -30 -4 -16 -11 -30 -16 -30 -5
0 -9 -7 -9 -15 0 -8 -7 -15 -15 -15 -8 0 -15 -7 -15 -15 0 -8 -4 -15 -10 -15
-5 0 -10 -7 -10 -15 0 -8 -7 -15 -15 -15 -8 0 -15 -7 -15 -15 0 -8 -7 -15 -15
-15 -8 0 -15 -7 -15 -15 0 -8 -7 -15 -15 -15 -8 0 -15 -7 -15 -15 0 -8 -7 -15
-15 -15 -8 0 -15 -5 -15 -11 0 -11 -25 -39 -35 -39 -10 0 -35 -28 -35 -39 0
-6 -9 -11 -20 -11 -11 0 -20 -4 -20 -10 0 -5 -7 -10 -15 -10 -8 0 -15 -7 -15
-15 0 -8 -7 -15 -15 -15 -8 0 -15 -4 -15 -10 0 -5 -7 -10 -15 -10 -8 0 -15 -4
-15 -10 0 -5 -7 -10 -15 -10 -8 0 -15 -7 -15 -15 0 -8 -9 -15 -20 -15 -11 0
-20 -4 -20 -10 0 -5 -7 -10 -15 -10 -8 0 -15 -4 -15 -10 0 -5 -7 -10 -15 -10
-8 0 -15 -4 -15 -10 0 -5 -9 -10 -20 -10 -11 0 -20 -4 -20 -10 0 -5 -7 -10
-15 -10 -8 0 -15 -4 -15 -10 0 -5 -7 -10 -15 -10 -8 0 -15 -4 -15 -9 0 -5 -18
-12 -40 -16 -22 -4 -40 -11 -40 -16 0 -5 -7 -9 -15 -9 -8 0 -15 -4 -15 -8 0
-13 -227 -72 -345 -90 -131 -20 -690 -28 -905 -12 -155 11 -260 27 -260 40 0
4 -34 15 -75 25 -41 11 -75 23 -75 27 0 4 -7 8 -15 8 -8 0 -15 4 -15 9 0 5
-13 12 -30 16 -16 4 -30 13 -30 21 0 8 -4 14 -10 14 -5 0 -10 7 -10 15 0 8 -4
15 -10 15 -5 0 -10 7 -10 15 0 8 -7 15 -15 15 -8 0 -15 5 -15 10 0 6 -38 10
-95 10 l-95 0 0 -95 c0 -61 4 -95 11 -95 14 0 39 -25 39 -39 0 -6 5 -11 10
-11 6 0 10 -7 10 -15 0 -8 7 -15 15 -15 8 0 15 -6 15 -14 0 -8 13 -17 30 -21
17 -4 30 -11 30 -16 0 -5 9 -9 20 -9 11 0 20 -4 20 -8 0 -5 34 -17 75 -27 41
-11 75 -22 75 -25 0 -12 105 -29 255 -40 224 -17 1079 -9 1210 12 114 18 348
77 353 90 2 4 10 8 18 8 8 0 14 4 14 10 0 5 16 12 35 16 19 3 35 10 35 15 0 5
9 9 20 9 11 0 20 5 20 10 0 6 7 10 15 10 8 0 15 5 15 10 0 6 7 10 15 10 8 0
15 5 15 10 0 6 9 10 20 10 11 0 20 5 20 10 0 6 7 10 15 10 8 0 15 5 15 10 0 6
7 10 15 10 8 0 15 7 15 15 0 8 9 15 20 15 11 0 20 5 20 10 0 6 7 10 15 10 8 0
15 5 15 10 0 6 7 10 15 10 8 0 15 7 15 15 0 8 7 15 15 15 8 0 15 5 15 10 0 6
7 10 15 10 8 0 15 7 15 15 0 8 8 15 18 15 10 0 24 9 32 20 8 11 20 20 27 20 7
0 13 7 13 15 0 8 5 15 10 15 6 0 10 7 10 15 0 8 7 15 15 15 8 0 15 7 15 15 0
8 7 15 15 15 8 0 15 7 15 15 0 8 7 15 15 15 8 0 15 7 15 15 0 8 7 15 15 15 8
0 15 7 15 15 0 8 5 15 10 15 6 0 10 7 10 15 0 8 7 15 15 15 8 0 15 7 15 15 0
8 4 15 9 15 5 0 12 14 16 30 4 20 13 30 25 30 12 0 21 10 25 30 4 17 13 30 20
30 8 0 17 15 21 35 3 19 10 35 15 35 5 0 9 7 9 15 0 8 5 15 10 15 6 0 10 7 10
15 0 8 5 15 10 15 6 0 10 9 10 20 0 11 5 20 10 20 6 0 10 38 10 95 l0 95 -95
0 c-88 0 -95 -1 -95 -20z"/>
<path d="M4415 3823 c-11 -3 -27 -14 -36 -24 -9 -11 -23 -19 -32 -19 -9 0 -18
-12 -22 -30 -4 -16 -12 -30 -20 -30 -19 0 -35 -78 -35 -174 0 -70 3 -86 15
-86 8 0 15 -4 15 -10 0 -6 38 -10 95 -10 78 0 95 3 95 15 0 8 4 15 9 15 5 0
11 14 15 30 5 28 8 30 51 30 33 0 45 4 45 15 0 8 5 15 10 15 6 0 10 6 10 14 0
8 6 16 12 18 9 3 14 39 16 115 l4 110 -32 7 c-37 7 -185 6 -215 -1z"/>
<path d="M2543 3533 c-21 -4 -23 -10 -23 -59 l0 -54 -49 0 -49 0 -6 -42 c-4
-24 -9 -91 -12 -150 l-6 -108 25 0 c14 0 27 -5 29 -11 3 -8 48 -14 126 -17
108 -4 122 -3 122 12 0 9 4 16 9 16 5 0 12 17 15 38 11 59 16 72 32 72 8 0 14
7 14 15 0 8 7 15 15 15 8 0 15 9 15 20 0 11 5 20 10 20 6 0 10 45 10 114 0
109 -1 114 -22 120 -25 6 -220 6 -255 -1z"/>
<path d="M5310 5507 l0 -94 47 -6 c26 -3 49 -10 51 -16 2 -6 12 -11 23 -11 10
0 19 -6 19 -14 0 -19 32 -26 133 -26 l87 0 0 95 0 94 -35 7 c-20 3 -35 12 -35
20 0 8 -6 14 -14 14 -8 0 -16 6 -18 13 -3 8 -42 13 -131 16 l-127 3 0 -95z"/>
</g>
</svg>
