<?xml version="1.0" encoding="UTF-8" standalone="no"?>
<!DOCTYPE svg PUBLIC "-//W3C//DTD SVG 1.1//EN"
 "http://www.w3.org/Graphics/SVG/1.1/DTD/svg11.dtd">
<!-- Generated by graphviz version 2.40.1 (20161225.0304)
 -->
<!-- Title: %0 Pages: 1 -->
<svg width="570pt" height="212pt"
 viewBox="0.00 0.00 569.98 212.00" xmlns="http://www.w3.org/2000/svg" xmlns:xlink="http://www.w3.org/1999/xlink">
<g id="graph0" class="graph" transform="scale(1 1) rotate(0) translate(4 208)">
<title>%0</title>
<polygon fill="transparent" stroke="transparent" points="-4,4 -4,-208 565.9802,-208 565.9802,4 -4,4"/>
<g id="clust1" class="cluster">
<title>cluster</title>
<polygon fill="transparent" stroke="#333333" points="194.1514,-8 194.1514,-196 445.9592,-196 445.9592,-8 194.1514,-8"/>
<text text-anchor="start" x="293.2082" y="-180.4" font-family="Helvetica,Arial,sans-serif" font-weight="bold" font-size="14.00" fill="#333333"> pandoc </text>
</g>
<g id="clust3" class="cluster">
<title>cluster_t</title>
<polygon fill="transparent" stroke="#333333" points="465.9592,-8 465.9592,-196 554.9802,-196 554.9802,-8 465.9592,-8"/>
<text text-anchor="start" x="473.9087" y="-180.4" font-family="Helvetica,Arial,sans-serif" font-weight="bold" font-size="14.00" fill="#333333"> Templates </text>
</g>
<!-- posts -->
<g id="node1" class="node">
<title>posts</title>
<polygon fill="none" stroke="#333333" points="202.5995,-79 202.5995,-115 256.5995,-115 256.5995,-79 202.5995,-79"/>
<text text-anchor="middle" x="229.5995" y="-92.9" font-family="Helvetica,Arial,sans-serif" font-size="14.00" fill="#333333">posts</text>
</g>
<!-- output -->
<g id="node2" class="node">
<title>output</title>
<polygon fill="none" stroke="#333333" points="293.0476,-75 293.0476,-111 347.9592,-111 347.9592,-75 293.0476,-75"/>
<text text-anchor="middle" x="320.5034" y="-88.9" font-family="Helvetica,Arial,sans-serif" font-size="14.00" fill="#333333">output</text>
</g>
<!-- posts&#45;&gt;output -->
<g id="edge2" class="edge">
<title>posts&#45;&gt;output</title>
<path fill="none" stroke="#333333" stroke-dasharray="5,2" d="M256.8737,-95C256.8737,-95 285.4343,-95 285.4343,-95"/>
<polygon fill="#333333" stroke="#333333" points="285.4343,-97.6251 292.9343,-95 285.4343,-92.3751 285.4343,-97.6251"/>
<text text-anchor="middle" x="274.9998" y="-82.3476" font-family="Helvetica,Arial,sans-serif" font-size="14.00" fill="#ff0000">(5)</text>
</g>
<!-- .tex -->
<g id="node3" class="node">
<title>.tex</title>
<polygon fill="none" stroke="#333333" points="383.9592,-17 383.9592,-53 437.9592,-53 437.9592,-17 383.9592,-17"/>
<text text-anchor="middle" x="410.9592" y="-30.9" font-family="Helvetica,Arial,sans-serif" font-size="14.00" fill="#333333">.tex</text>
</g>
<!-- output&#45;&gt;.tex -->
<g id="edge3" class="edge">
<title>output&#45;&gt;.tex</title>
<path fill="none" stroke="#333333" stroke-dasharray="5,2" d="M320.9802,-74.959C320.9802,-61.184 320.9802,-44.55 320.9802,-44.55 320.9802,-44.55 375.9736,-44.55 375.9736,-44.55"/>
<polygon fill="#333333" stroke="#333333" points="375.9737,-47.1751 383.4736,-44.55 375.9736,-41.9251 375.9737,-47.1751"/>
<text text-anchor="middle" x="365.5689" y="-30.6112" font-family="Helvetica,Arial,sans-serif" font-size="14.00" fill="#ff0000">(4)</text>
</g>
<!-- .md -->
<g id="node4" class="node">
<title>.md</title>
<polygon fill="none" stroke="#333333" points="383.9592,-72 383.9592,-108 437.9592,-108 437.9592,-72 383.9592,-72"/>
<text text-anchor="middle" x="410.9592" y="-85.9" font-family="Helvetica,Arial,sans-serif" font-size="14.00" fill="#333333">.md</text>
</g>
<!-- output&#45;&gt;.md -->
<g id="edge4" class="edge">
<title>output&#45;&gt;.md</title>
<path fill="none" stroke="#333333" stroke-dasharray="5,2" d="M348.1346,-91.5C348.1346,-91.5 376.308,-91.5 376.308,-91.5"/>
<polygon fill="#333333" stroke="#333333" points="376.308,-94.1251 383.808,-91.5 376.3079,-88.8751 376.308,-94.1251"/>
<text text-anchor="middle" x="365.8076" y="-79.0589" font-family="Helvetica,Arial,sans-serif" font-size="14.00" fill="#ff0000">(2)</text>
</g>
<!-- .epub -->
<g id="node5" class="node">
<title>.epub</title>
<polygon fill="none" stroke="#333333" points="383.9592,-127 383.9592,-163 437.9592,-163 437.9592,-127 383.9592,-127"/>
<text text-anchor="middle" x="410.9592" y="-140.9" font-family="Helvetica,Arial,sans-serif" font-size="14.00" fill="#333333">.epub</text>
</g>
<!-- output&#45;&gt;.epub -->
<g id="edge5" class="edge">
<title>output&#45;&gt;.epub</title>
<path fill="none" stroke="#333333" stroke-dasharray="5,2" d="M320.9802,-111.1871C320.9802,-126.1824 320.9802,-145 320.9802,-145 320.9802,-145 375.9736,-145 375.9736,-145"/>
<polygon fill="#333333" stroke="#333333" points="375.9737,-147.6251 383.4736,-145 375.9736,-142.3751 375.9737,-147.6251"/>
<text text-anchor="middle" x="364.2815" y="-131.9871" font-family="Helvetica,Arial,sans-serif" font-size="14.00" fill="#ff0000">(7)</text>
</g>
<!-- PDF -->
<g id="node8" class="node">
<title>PDF</title>
<polygon fill="none" stroke="#333333" points="482.9697,-17 482.9697,-53 536.9697,-53 536.9697,-17 482.9697,-17"/>
<text text-anchor="middle" x="509.9697" y="-30.9" font-family="Helvetica,Arial,sans-serif" font-size="14.00" fill="#333333">PDF</text>
</g>
<!-- .tex&#45;&gt;PDF -->
<g id="edge6" class="edge">
<title>.tex&#45;&gt;PDF</title>
<path fill="none" stroke="#333333" stroke-dasharray="5,2" d="M438.0143,-35C438.0143,-35 475.4474,-35 475.4474,-35"/>
<polygon fill="#333333" stroke="#333333" points="475.4474,-37.6251 482.9474,-35 475.4473,-32.3751 475.4474,-37.6251"/>
<text text-anchor="middle" x="456.1404" y="-22.3476" font-family="Helvetica,Arial,sans-serif" font-size="14.00" fill="#ff0000">(1)</text>
</g>
<!-- jekyll -->
<g id="node9" class="node">
<title>jekyll</title>
<polygon fill="none" stroke="#333333" points="482.9697,-72 482.9697,-108 536.9697,-108 536.9697,-72 482.9697,-72"/>
<text text-anchor="middle" x="509.9697" y="-85.9" font-family="Helvetica,Arial,sans-serif" font-size="14.00" fill="#333333">jekyll</text>
</g>
<!-- .md&#45;&gt;jekyll -->
<g id="edge7" class="edge">
<title>.md&#45;&gt;jekyll</title>
<path fill="none" stroke="#333333" stroke-dasharray="5,2" d="M438.0143,-90C438.0143,-90 475.4474,-90 475.4474,-90"/>
<polygon fill="#333333" stroke="#333333" points="475.4474,-92.6251 482.9474,-90 475.4473,-87.3751 475.4474,-92.6251"/>
</g>
<!-- epub.css -->
<g id="node10" class="node">
<title>epub.css</title>
<polygon fill="none" stroke="#333333" points="473.9592,-127 473.9592,-163 545.9802,-163 545.9802,-127 473.9592,-127"/>
<text text-anchor="middle" x="509.9697" y="-140.9" font-family="Helvetica,Arial,sans-serif" font-size="14.00" fill="#333333">epub.css</text>
</g>
<!-- .epub&#45;&gt;epub.css -->
<g id="edge8" class="edge">
<title>.epub&#45;&gt;epub.css</title>
<path fill="none" stroke="#333333" stroke-dasharray="5,2" d="M445.5143,-145C445.5143,-145 473.6641,-145 473.6641,-145"/>
<polygon fill="#333333" stroke="#333333" points="445.5143,-142.3751 438.0143,-145 445.5142,-147.6251 445.5143,-142.3751"/>
</g>
<!-- bib -->
<g id="node6" class="node">
<title>bib</title>
<text text-anchor="middle" x="229.5995" y="-43.8" font-family="Helvetica,Arial,sans-serif" font-size="14.00" fill="#333333">ref.bib</text>
</g>
<!-- bib&#45;&gt;posts -->
<g id="edge9" class="edge">
<title>bib&#45;&gt;posts</title>
<path fill="none" stroke="#333333" stroke-dasharray="5,2" d="M229.9802,-60.3648C229.9802,-60.3648 229.9802,-71.2107 229.9802,-71.2107"/>
<polygon fill="#333333" stroke="#333333" points="227.3553,-71.2106 229.9802,-78.7107 232.6053,-71.2107 227.3553,-71.2106"/>
</g>
<!-- n1 -->
<g id="node7" class="node">
<title>n1</title>
</g>
<!-- n2 -->
<g id="node11" class="node">
<title>n2</title>
<text text-anchor="middle" x="83.0757" y="-92.8" font-family="Helvetica,Arial,sans-serif" font-size="14.00" fill="#333333">Notes/Annotations</text>
</g>
<!-- n2&#45;&gt;posts -->
<g id="edge10" class="edge">
<title>n2&#45;&gt;posts</title>
<path fill="none" stroke="#333333" stroke-dasharray="5,2" d="M155.4791,-97C155.4791,-97 194.8508,-97 194.8508,-97"/>
<polygon fill="#333333" stroke="#333333" points="194.8508,-99.6251 202.3508,-97 194.8507,-94.3751 194.8508,-99.6251"/>
<text text-anchor="middle" x="179.9111" y="-83.9075" font-family="Helvetica,Arial,sans-serif" font-size="14.00" fill="#ff0000">(6)</text>
</g>
<!-- Reference Management -->
<g id="node12" class="node">
<title>Reference Management</title>
<polygon fill="none" stroke="#333333" points="0,-30 0,-66 166.1514,-66 166.1514,-30 0,-30"/>
<text text-anchor="middle" x="83.0757" y="-43.9" font-family="Helvetica,Arial,sans-serif" font-size="14.00" fill="#333333">Reference Management</text>
</g>
<!-- Reference Management&#45;&gt;bib -->
<g id="edge1" class="edge">
<title>Reference Management&#45;&gt;bib</title>
<path fill="none" stroke="#333333" stroke-dasharray="5,2" d="M166.1842,-48C166.1842,-48 194.5449,-48 194.5449,-48"/>
<polygon fill="#333333" stroke="#333333" points="194.5449,-50.6251 202.0449,-48 194.5448,-45.3751 194.5449,-50.6251"/>
<text text-anchor="middle" x="180.4736" y="-35.55" font-family="Helvetica,Arial,sans-serif" font-size="14.00" fill="#ff0000">(3)</text>
</g>
</g>
</svg>
