<?xml version="1.0" encoding="UTF-8" standalone="no"?>
<!DOCTYPE svg PUBLIC "-//W3C//DTD SVG 1.1//EN"
 "http://www.w3.org/Graphics/SVG/1.1/DTD/svg11.dtd">
<!-- Generated by graphviz version 2.40.1 (20161225.0304)
 -->
<!-- Title: %0 Pages: 1 -->
<svg width="675pt" height="135pt"
 viewBox="0.00 0.00 674.67 134.80" xmlns="http://www.w3.org/2000/svg" xmlns:xlink="http://www.w3.org/1999/xlink">
<g id="graph0" class="graph" transform="scale(1 1) rotate(0) translate(4 130.7988)">
<title>%0</title>
<polygon fill="transparent" stroke="transparent" points="-4,4 -4,-130.7988 670.6744,-130.7988 670.6744,4 -4,4"/>
<g id="clust1" class="cluster">
<title>cluster</title>
<polygon fill="transparent" stroke="#333333" points="240.7026,-40.7988 240.7026,-118.7988 472.523,-118.7988 472.523,-40.7988 240.7026,-40.7988"/>
<text text-anchor="start" x="298.6577" y="-103.1988" font-family="Helvetica,Arial,sans-serif" font-weight="bold" font-size="14.00" fill="#333333"> File Management </text>
</g>
<!-- Input Buffer -->
<g id="node1" class="node">
<title>Input Buffer</title>
<polygon fill="transparent" stroke="#333333" points="248.7026,-49.7988 248.7026,-85.7988 337.0658,-85.7988 337.0658,-49.7988 248.7026,-49.7988"/>
<text text-anchor="middle" x="292.8842" y="-63.6988" font-family="Helvetica,Arial,sans-serif" font-size="14.00" fill="#333333">Input Buffer</text>
</g>
<!-- File Storage -->
<g id="node2" class="node">
<title>File Storage</title>
<polygon fill="transparent" stroke="#333333" points="373.0658,-49.7988 373.0658,-85.7988 464.523,-85.7988 464.523,-49.7988 373.0658,-49.7988"/>
<text text-anchor="middle" x="418.7944" y="-63.6988" font-family="Helvetica,Arial,sans-serif" font-size="14.00" fill="#333333">File Storage</text>
</g>
<!-- Input Buffer&#45;&gt;File Storage -->
<g id="edge3" class="edge">
<title>Input Buffer&#45;&gt;File Storage</title>
<path fill="none" stroke="#333333" stroke-dasharray="5,2" d="M337.2754,-67.7988C337.2754,-67.7988 365.1738,-67.7988 365.1738,-67.7988"/>
<polygon fill="#333333" stroke="#333333" points="365.1739,-70.4239 372.6738,-67.7988 365.1738,-65.1739 365.1739,-70.4239"/>
</g>
<!-- Reference Management -->
<g id="node5" class="node">
<title>Reference Management</title>
<polygon fill="transparent" stroke="#333333" points="500.523,-46.7988 500.523,-82.7988 666.6744,-82.7988 666.6744,-46.7988 500.523,-46.7988"/>
<text text-anchor="middle" x="583.5987" y="-60.6988" font-family="Helvetica,Arial,sans-serif" font-size="14.00" fill="#333333">Reference Management</text>
</g>
<!-- File Storage&#45;&gt;Reference Management -->
<g id="edge4" class="edge">
<title>File Storage&#45;&gt;Reference Management</title>
<path fill="none" stroke="#333333" stroke-dasharray="5,2" d="M464.7016,-66.2988C464.7016,-66.2988 492.8875,-66.2988 492.8875,-66.2988"/>
<polygon fill="#333333" stroke="#333333" points="492.8875,-68.9239 500.3875,-66.2988 492.8874,-63.6739 492.8875,-68.9239"/>
</g>
<!-- File Reading -->
<g id="node3" class="node">
<title>File Reading</title>
<polygon fill="transparent" stroke="#333333" points="0,-46.7988 0,-82.7988 94.5652,-82.7988 94.5652,-46.7988 0,-46.7988"/>
<text text-anchor="middle" x="47.2826" y="-60.6988" font-family="Helvetica,Arial,sans-serif" font-size="14.00" fill="#333333">File Reading</text>
</g>
<!-- Input Type -->
<g id="node4" class="node">
<title>Input Type</title>
<polygon fill="transparent" stroke="#333333" points="130.5652,-49.7988 130.5652,-85.7988 212.7026,-85.7988 212.7026,-49.7988 130.5652,-49.7988"/>
<text text-anchor="middle" x="171.6339" y="-63.6988" font-family="Helvetica,Arial,sans-serif" font-size="14.00" fill="#333333">Input Type</text>
</g>
<!-- File Reading&#45;&gt;Input Type -->
<g id="edge1" class="edge">
<title>File Reading&#45;&gt;Input Type</title>
<path fill="none" stroke="#333333" stroke-dasharray="5,2" d="M102.1492,-66.2988C102.1492,-66.2988 130.4938,-66.2988 130.4938,-66.2988"/>
<polygon fill="#333333" stroke="#333333" points="102.1493,-63.6739 94.6492,-66.2988 102.1492,-68.9239 102.1493,-63.6739"/>
</g>
<!-- n1 -->
<g id="node6" class="node">
<title>n1</title>
<polygon fill="transparent" stroke="transparent" points="47.7826,-26.2988 46.7826,-26.2988 46.7826,-25.2988 47.7826,-25.2988 47.7826,-26.2988"/>
</g>
<!-- File Reading&#45;&gt;n1 -->
<g id="edge5" class="edge">
<title>File Reading&#45;&gt;n1</title>
<path fill="none" stroke="#333333" stroke-dasharray="5,2" d="M47.6744,-46.6689C47.6744,-38.0757 47.6744,-29.1258 47.6744,-26.5388"/>
</g>
<!-- Input Type&#45;&gt;Input Buffer -->
<g id="edge2" class="edge">
<title>Input Type&#45;&gt;Input Buffer</title>
<path fill="none" stroke="#333333" stroke-dasharray="5,2" d="M213.0222,-67.7988C213.0222,-67.7988 240.8658,-67.7988 240.8658,-67.7988"/>
<polygon fill="#333333" stroke="#333333" points="240.8658,-70.4239 248.3658,-67.7988 240.8658,-65.1739 240.8658,-70.4239"/>
</g>
<!-- n2 -->
<g id="node7" class="node">
<title>n2</title>
<polygon fill="transparent" stroke="transparent" points="584.0987,-26.2988 583.0987,-26.2988 583.0987,-25.2988 584.0987,-25.2988 584.0987,-26.2988"/>
</g>
<!-- Reference Management&#45;&gt;n2 -->
<g id="edge6" class="edge">
<title>Reference Management&#45;&gt;n2</title>
<path fill="none" stroke="#333333" stroke-dasharray="5,2" d="M583.6744,-39.1689C583.6744,-39.1689 583.6744,-26.5388 583.6744,-26.5388"/>
<polygon fill="#333333" stroke="#333333" points="581.0495,-39.1689 583.6744,-46.6689 586.2995,-39.169 581.0495,-39.1689"/>
</g>
<!-- n1&#45;&gt;n2 -->
<g id="edge7" class="edge">
<title>n1&#45;&gt;n2</title>
<path fill="none" stroke="#333333" stroke-dasharray="5,2" d="M48.1526,-25.7988C71.5659,-25.7988 559.8913,-25.7988 582.7687,-25.7988"/>
<text text-anchor="middle" x="332.621" y="-4.2" font-family="Helvetica,Arial,sans-serif" font-size="14.00" fill="#333333">Notes/Annotations</text>
</g>
</g>
</svg>
